<svg xmlns="http://www.w3.org/2000/svg" xmlns:xlink="http://www.w3.org/1999/xlink" width="500" zoomAndPan="magnify" viewBox="0 0 375 374.999991" height="500" preserveAspectRatio="xMidYMid meet" version="1.0"><defs><clipPath id="e638db3230"><path d="M 72.960938 170 L 301.710938 170 L 301.710938 323.53125 L 72.960938 323.53125 Z M 72.960938 170 " clip-rule="nonzero"/></clipPath><clipPath id="c3890219f8"><path d="M 80 51.28125 L 295 51.28125 L 295 158 L 80 158 Z M 80 51.28125 " clip-rule="nonzero"/></clipPath></defs><g clip-path="url(#e638db3230)"><path fill="#ffffff" d="M 222.417969 252.917969 C 222.441406 252.917969 222.441406 252.917969 222.441406 252.917969 C 225.800781 252.988281 229.019531 254.800781 230.761719 257.679688 C 232.527344 260.535156 232.71875 264.234375 231.269531 267.257812 C 231.269531 267.257812 231.269531 267.28125 231.269531 267.28125 C 223.167969 284.160156 206.140625 294.996094 187.472656 294.996094 C 168.996094 294.996094 152.164062 284.332031 143.988281 267.691406 C 143.894531 267.523438 143.796875 267.355469 143.675781 267.207031 C 141.957031 263.582031 142.660156 259.035156 145.417969 256.085938 C 148.003906 253.328125 152.140625 252.359375 155.792969 253.519531 C 155.910156 253.546875 156.007812 253.570312 156.128906 253.59375 C 156.179688 253.59375 156.203125 253.617188 156.25 253.617188 C 156.152344 253.617188 156.347656 253.640625 156.300781 253.617188 C 156.371094 253.640625 156.417969 253.640625 156.46875 253.640625 C 156.371094 253.640625 156.371094 253.640625 156.347656 253.640625 C 156.324219 253.640625 156.152344 253.617188 156.46875 253.664062 C 156.539062 253.691406 156.613281 253.691406 156.6875 253.714844 C 165.609375 257.222656 176.539062 259.492188 187.472656 259.492188 C 198.304688 259.492188 208.851562 257.339844 217.847656 253.8125 C 218.0625 253.785156 218.257812 253.714844 218.449219 253.640625 C 218.476562 253.640625 218.476562 253.640625 218.476562 253.640625 C 219.730469 253.132812 221.0625 252.867188 222.417969 252.917969 Z M 224.351562 200.777344 C 233.058594 200.777344 240.144531 207.839844 240.144531 216.566406 C 240.144531 225.273438 233.058594 232.359375 224.351562 232.359375 C 215.621094 232.359375 208.558594 225.273438 208.558594 216.566406 C 208.558594 207.839844 215.621094 200.777344 224.351562 200.777344 Z M 150.640625 200.777344 C 159.371094 200.777344 166.433594 207.839844 166.433594 216.566406 C 166.433594 225.273438 159.371094 232.359375 150.640625 232.359375 C 141.910156 232.359375 134.847656 225.273438 134.847656 216.566406 C 134.847656 207.839844 141.910156 200.777344 150.640625 200.777344 Z M 87.738281 170.523438 C 83 170.523438 78.476562 173.980469 77.195312 178.550781 C 74.4375 188.515625 72.960938 198.890625 72.960938 209.191406 C 72.960938 239.082031 85.394531 269 106.527344 290.109375 C 127.664062 311.246094 157.582031 323.703125 187.472656 323.703125 C 217.363281 323.703125 247.300781 311.246094 268.4375 290.109375 C 289.574219 269 302.003906 239.082031 302.003906 209.191406 C 302.003906 198.867188 300.578125 188.492188 297.796875 178.550781 C 296.539062 173.980469 291.992188 170.523438 287.230469 170.523438 L 87.738281 170.523438 " fill-opacity="1" fill-rule="nonzero"/></g><g clip-path="url(#c3890219f8)"><path fill="#ffffff" d="M 222.539062 89.847656 C 225.753906 89.652344 228.96875 91.855469 229.867188 94.996094 C 230.324219 96.714844 230.203125 98.578125 229.332031 100.246094 C 229.285156 100.292969 229.238281 100.367188 229.1875 100.464844 C 226.429688 105.105469 225.5625 110.957031 226.792969 116.160156 C 228.027344 121.480469 231.507812 126.292969 236.128906 129.167969 C 238.765625 130.8125 241.933594 131.925781 245.199219 132.214844 C 245.246094 132.214844 245.292969 132.214844 245.34375 132.214844 C 246.429688 132.335938 247.324219 132.601562 248.292969 133.183594 C 251.726562 135.3125 252.621094 139.808594 250.589844 143.121094 C 249.089844 145.566406 246.09375 146.796875 243.3125 146.316406 C 243.191406 146.289062 243.070312 146.289062 242.949219 146.289062 C 237.894531 145.664062 233.035156 144.019531 228.730469 141.332031 C 221.207031 136.664062 216.03125 129.53125 213.613281 121.648438 C 213.082031 119.859375 212.574219 118.019531 212.308594 116.109375 C 211.316406 108.804688 212.71875 101.140625 216.515625 94.246094 C 216.5625 94.175781 216.589844 94.128906 216.613281 94.078125 C 217.53125 92.023438 219.152344 90.644531 221.160156 90.089844 C 221.59375 89.96875 222.054688 89.894531 222.539062 89.847656 Z M 152.453125 89.847656 C 152.914062 89.894531 153.371094 89.96875 153.832031 90.089844 C 155.839844 90.644531 157.460938 92.023438 158.378906 94.078125 C 158.402344 94.128906 158.425781 94.175781 158.453125 94.246094 C 162.25 101.140625 163.675781 108.804688 162.660156 116.109375 C 162.394531 118.019531 161.886719 119.859375 161.351562 121.648438 C 158.960938 129.53125 153.757812 136.664062 146.238281 141.332031 C 141.933594 144.019531 137.097656 145.664062 132.019531 146.289062 C 131.898438 146.289062 131.777344 146.289062 131.65625 146.316406 C 128.875 146.796875 125.875 145.566406 124.375 143.121094 C 122.34375 139.808594 123.265625 135.3125 126.675781 133.183594 C 127.640625 132.601562 128.558594 132.335938 129.648438 132.214844 C 129.695312 132.214844 129.746094 132.214844 129.792969 132.214844 C 133.058594 131.925781 136.203125 130.8125 138.863281 129.167969 C 143.480469 126.292969 146.941406 121.480469 148.199219 116.160156 C 149.40625 110.957031 148.558594 105.105469 145.804688 100.464844 C 145.753906 100.367188 145.683594 100.292969 145.632812 100.246094 C 144.761719 98.578125 144.640625 96.714844 145.125 94.996094 C 145.996094 91.855469 149.214844 89.652344 152.453125 89.847656 Z M 216.226562 51.296875 C 213.082031 51.226562 210.058594 51.878906 207.253906 52.871094 C 206.914062 52.820312 206.578125 52.894531 206.261719 53.015625 C 200.554688 55.3125 195.863281 60.222656 193.90625 66.050781 C 193.878906 66.074219 193.832031 66.097656 193.808594 66.121094 L 193.808594 157.800781 L 286.816406 157.800781 C 285.875 156.035156 285.027344 154.152344 284.375 152.070312 C 284.230469 151.613281 284.085938 151.03125 283.941406 150.355469 C 282.996094 146.265625 283.457031 142.519531 284.421875 139.324219 C 285.390625 136.183594 286.816406 133.59375 288.246094 131.34375 C 291.121094 126.894531 293.6875 123.824219 294.507812 120.730469 C 295.136719 118.382812 294.917969 115.699219 294 113.109375 C 293.082031 110.5 291.4375 107.910156 289.234375 105.734375 C 284.957031 101.453125 278.644531 98.578125 271.871094 97.101562 C 270.710938 96.835938 269.550781 97.585938 269.308594 98.769531 C 269.285156 98.867188 269.261719 98.964844 269.261719 99.058594 C 268.921875 104.429688 267.351562 109.675781 264.449219 114.246094 C 264.398438 114.320312 264.351562 114.394531 264.328125 114.464844 C 264.300781 114.488281 264.300781 114.515625 264.300781 114.539062 C 264.109375 114.875 263.914062 115.214844 263.699219 115.53125 C 263.699219 115.53125 263.699219 115.554688 263.671875 115.554688 C 263.671875 115.554688 263.671875 115.554688 263.671875 115.578125 C 262.199219 117.585938 259.757812 118.820312 257.289062 118.820312 C 255.234375 118.820312 253.179688 117.972656 251.726562 116.496094 C 250.253906 115.046875 249.40625 113.015625 249.40625 110.933594 C 249.40625 109.265625 249.960938 107.597656 250.953125 106.265625 L 250.976562 106.242188 C 253.105469 103.4375 254.410156 99.640625 254.554688 95.53125 C 254.726562 91.128906 253.734375 86.316406 251.96875 81.480469 C 248.367188 71.539062 241.761719 62.398438 233.324219 56.910156 C 229.117188 54.175781 224.425781 52.3125 219.730469 51.589844 C 218.570312 51.417969 217.386719 51.320312 216.226562 51.296875 Z M 158.742188 51.296875 C 157.582031 51.320312 156.417969 51.417969 155.234375 51.589844 C 150.542969 52.3125 145.851562 54.175781 141.644531 56.910156 C 133.203125 62.398438 126.601562 71.539062 123 81.480469 C 121.234375 86.316406 120.242188 91.128906 120.410156 95.53125 C 120.554688 99.640625 121.886719 103.4375 124.015625 106.242188 L 124.015625 106.265625 C 125.003906 107.597656 125.5625 109.265625 125.5625 110.933594 C 125.5625 113.015625 124.714844 115.046875 123.265625 116.496094 C 121.789062 117.972656 119.734375 118.820312 117.679688 118.820312 C 115.210938 118.820312 112.769531 117.585938 111.316406 115.578125 C 111.316406 115.578125 111.292969 115.578125 111.292969 115.578125 C 111.292969 115.554688 111.292969 115.554688 111.292969 115.554688 C 111.292969 115.554688 111.269531 115.53125 111.269531 115.53125 C 111.050781 115.214844 110.859375 114.875 110.6875 114.539062 C 110.664062 114.515625 110.664062 114.488281 110.640625 114.464844 C 110.617188 114.394531 110.566406 114.320312 110.519531 114.246094 C 107.617188 109.675781 106.070312 104.429688 105.730469 99.058594 C 105.632812 97.875 104.617188 96.980469 103.410156 97.054688 C 103.3125 97.054688 103.214844 97.078125 103.09375 97.101562 C 96.324219 98.578125 90.011719 101.453125 85.730469 105.734375 C 83.554688 107.910156 81.910156 110.5 80.96875 113.109375 C 80.074219 115.699219 79.832031 118.382812 80.460938 120.730469 C 81.304688 123.824219 83.84375 126.894531 86.722656 131.34375 C 88.148438 133.59375 89.578125 136.183594 90.542969 139.324219 C 91.535156 142.519531 91.996094 146.265625 91.050781 150.355469 C 90.882812 151.03125 90.738281 151.613281 90.59375 152.070312 C 89.964844 154.152344 89.09375 156.035156 88.148438 157.800781 L 181.160156 157.800781 L 181.160156 66.121094 C 181.136719 66.097656 181.085938 66.074219 181.0625 66.050781 C 179.105469 60.222656 174.4375 55.3125 168.730469 53.015625 C 168.414062 52.894531 168.050781 52.820312 167.714844 52.871094 C 164.910156 51.878906 161.886719 51.226562 158.742188 51.296875 " fill-opacity="1" fill-rule="nonzero"/></g></svg>